<?xml version="1.0" encoding="UTF-8"?>
<svg id="_レイヤー_2" data-name="レイヤー_2" xmlns="http://www.w3.org/2000/svg" viewBox="0 0 287.44 70.75">
  <defs>
    <style>
      .cls-1 {
        fill: #9eddbd;
      }

      .cls-1, .cls-2 {
        stroke: #221714;
        stroke-miterlimit: 10;
        stroke-width: 3px;
      }

      .cls-2 {
        fill: #ef6a0f;
      }
    </style>
  </defs>
  <g id="_レイヤー_1-2" data-name="レイヤー_1">
    <path class="cls-2" d="M238.74,42.04l-.74-3.07c4.7-4.1,36.97-12.81,43.23-14.31l-2.59,7.79,5.86,5.81c-4.15,1.06-40.49,8.58-45,6.98l-.77-3.2Z"/>
    <path class="cls-2" d="M237.8,38.09l-2.03-2.78c3-6.1,31.82-28.37,37.49-32.51l.66,8.92,8.33,3.39c-3.73,2.8-37.13,25.59-42.33,25.87l-2.12-2.9Z"/>
    <path class="cls-1" d="M1.5,10.45v58.8h235.98V10.45H1.5ZM220.55,47.02c-3.62,0-6.56-2.94-6.56-6.56s2.94-6.56,6.56-6.56,6.56,2.94,6.56,6.56-2.94,6.56-6.56,6.56Z"/>
    <rect class="cls-2" x="222.85" y="36.27" width="16.75" height="7.89" transform="translate(-.1 .57) rotate(-.14)"/>
    <g>
      <path d="M61.56,50.48c0,.35-.05.75-.2.95-.95,1.25-3.75,2.3-6,2.3-1.8,0-3.25-.7-3.25-2.25v-.1c-2.05,1.5-4.8,2.35-7.25,2.35-3.85,0-5.45-1.7-5.6-4.35v-.45c0-2.15,1.05-3.55,2.95-4.7,3-1.8,7.6-2.4,9.95-2.35v-2.4c0-2.8-1.35-3.95-3.4-3.95-2.45,0-3.8,2.25-4.8,4-.3.5-.75.65-1.05.65-1,0-2.15-2.1-2.15-3.6,0-.75.3-1.05.85-1.4.85-.5,3.5-2,8.25-2,4.1,0,7.8,1.65,7.7,6.25l-.2,9.6c-.05,1.5.7,1.85,3.8.7.3-.1.4.3.4.75ZM52.11,49.03l.05-5.2c-3.85-.1-8,1.1-8,4.4,0,1.9,1.3,2.65,2.75,2.65s3.55-.35,5.2-1.85Z"/>
      <path d="M80.71,35.52v.1c-.05,1.05-.75,2.75-1.45,3.6-.25.4-1.1.4-1.35,0-1.15-1.9-2.25-2.15-3.3-2.15-1.3,0-3.15,1.3-3.85,2.95v10.1c0,.8,1.55.8,3.2.85.75,0,.45,2.25-.45,2.25h-.1c-3.55-.2-7.45-.2-11,0-.25,0-.35-.2-.35-.7,0-.55.2-1.25.55-1.3,1.4-.3,2.9-.6,2.9-2.05.05-4.65,0-7.2-.05-9.8-.05-1.4-.5-2.05-2.75-2.65-.55-.15-.15-1.4.2-1.55,1.65-.65,3.25-1.35,4.9-2.2.1-.05.15-.05.2-.05.3,0,.9.3,1,.6.3,1.15.85,2.45,1.4,3.45,2-2.45,4.25-3.5,6.25-3.5,2.6,0,4.05,1.3,4.05,2.05Z"/>
      <path d="M101.56,49.98c0,.1,0,.15-.05.25-1.1,1.6-3.8,3.55-8.9,3.55-6.3,0-10.6-3.8-10.6-10.1,0-5.6,3.8-10.55,11.5-10.55,4.85,0,7.65,1.7,7.8,2.6.15.8-.25,2.8-.5,3.8-.2.6-1.45.75-1.7.25-1.15-2.45-3.2-4.25-6.35-4.25-2.85,0-5.05,1.85-5.05,7.2s2.7,8.3,6.8,8.3c2.25,0,4.5-1.15,5.7-2.3.55-.5,1.35.55,1.35,1.25Z"/>
      <path d="M128.96,51.48c0,.8-.4,1.75-1.05,1.75h-.1c-.65-.05-4.55-.3-9.35,0h-.1c-.55,0-.45-1.75.25-1.95,1.55-.5,2.1-.65,2.15-2.05.1-2.4.05-4.45-.05-8.1-.05-2.8-1.95-4-4.65-4-1.85,0-3.9,1.1-4.65,2.7,0,3.45.05,6.85.05,10.3,0,.65.55.75,2.75.9.65.05.35,2.2-.6,2.2h-.1c-3.25-.2-6.9-.2-10.45,0h-.1c-.2,0-.35-.35-.35-.65,0-.55.35-1.3.75-1.4,1.35-.25,2.85-.6,2.85-2.05.05-6.6.05-13.15,0-19.75,0-2.2-.85-2.3-3-3.1-.55-.2-.2-1.45.3-1.6l6.95-2.15c.15-.05.25-.05.4-.05.65,0,1,.6.9.8-.25,1.2-.3,2.75-.3,4.3,0,3-.05,6.05-.05,9.1,2.1-2,4.9-3.2,8-3.2,3.75,0,6.6,1.6,6.65,6.35,0,3.15-.05,6.65-.1,9.75,0,1.25.95,1.3,2.8,1.4.15,0,.2.25.2.5Z"/>
      <path d="M143.36,51.73c0,.65-.35,1.5-.9,1.5h-.1c-.7-.05-6.5-.3-11.8,0-.25,0-.35-.25-.35-.6,0-.55.3-1.35.65-1.4,1.95-.35,3.45-.8,3.45-2.05.05-3.25.05-6.45,0-9.7,0-2-.45-2.5-3-2.65-.5-.05-.4-1.55.35-1.75l7.15-2.1c.65-.2,1.2.5,1.1.75-.25,1.2-.35,2.9-.35,4.45v11.95c0,.8,1.55.8,3.35.85.3,0,.45.35.45.75ZM133.56,26.52c0-1.35,1.95-3.2,3.35-3.2,1.55,0,3.3,1.6,3.25,3.2-.05,1.4-1.75,3.15-3.35,3.15-1.5,0-3.25-1.75-3.25-3.15Z"/>
      <path d="M168.16,34.27c0,.55-.3,1.35-.65,1.4-1.3.3-1.65.5-2,1.3l-7.35,15.9c-.2.45-1.8,1.05-3.15,1.05-.6,0-1.1-.1-1.3-.5l-7.6-16.45c-.5-1.05-1.4-1.05-2.05-1.1-.3,0-.45-.35-.45-.8,0-.65.35-1.4.9-1.4h.1c.55.05,4.95.3,9.85,0,.65,0,.25,1.95-.3,2-2.2.3-2.35.65-1.95,1.5l5.05,11.55,5.05-11.75c.4-.95-.65-1-1.9-1.05-.8-.05-.5-2.25.45-2.25h.1c2.65.2,4.1.2,6.85,0,.25,0,.35.25.35.6Z"/>
      <path d="M188.36,50.08c0,.2-.05.35-.15.45-2.4,2.4-5.4,3.25-9.05,3.25-6,0-10.3-3.5-10.3-10.2,0-5.2,3.5-10.4,10.9-10.4,5.05,0,8.2,2.7,8.65,6.8v.1c0,.45-.3.85-.8,1l-12.85,3.9c.7,4.2,3.05,6.1,6.35,6.1,2.45,0,5-1.45,6-2.4.45-.45,1.25.7,1.25,1.4ZM174.56,42.23v.4l8.7-2.9c-.6-2.55-2.05-4.1-4.4-4.1-2.9.05-4.3,2.3-4.3,6.6Z"/>
    </g>
  </g>
</svg>