<?xml version="1.0" encoding="UTF-8"?>
<svg id="_レイヤー_2" data-name="レイヤー_2" xmlns="http://www.w3.org/2000/svg" viewBox="0 0 287.44 70.75">
  <defs>
    <style>
      .cls-1 {
        fill: #a5d6d4;
      }

      .cls-1, .cls-2 {
        stroke: #221714;
        stroke-miterlimit: 10;
        stroke-width: 3px;
      }

      .cls-2 {
        fill: #b56052;
      }
    </style>
  </defs>
  <g id="_レイヤー_1-2" data-name="レイヤー_1">
    <path class="cls-2" d="M238.74,42.04l-.74-3.07c4.7-4.1,36.97-12.81,43.23-14.31l-2.59,7.79,5.86,5.81c-4.15,1.06-40.49,8.58-45,6.98l-.77-3.2Z"/>
    <path class="cls-2" d="M237.8,38.09l-2.03-2.78c3-6.1,31.82-28.37,37.49-32.51l.66,8.92,8.33,3.39c-3.73,2.8-37.13,25.59-42.33,25.87l-2.12-2.9Z"/>
    <path class="cls-1" d="M1.5,10.45v58.8h235.98V10.45H1.5ZM220.55,47.02c-3.62,0-6.56-2.94-6.56-6.56s2.94-6.56,6.56-6.56,6.56,2.94,6.56,6.56-2.94,6.56-6.56,6.56Z"/>
    <rect class="cls-2" x="222.85" y="36.27" width="16.75" height="7.89" transform="translate(-.1 .57) rotate(-.14)"/>
    <g>
      <path d="M99.36,43.43c0,6.3-4.2,10.25-10.7,10.25-2,0-4.95-.65-6.8-1.9l-2.4,1.75c-.15.1-.25.1-.3.1-.45,0-1.15-.4-1.05-.85.35-1.5.4-3.7.4-6.55v-16.85c0-2.2-.85-2.45-3-3.25-.15-.05-.25-.25-.25-.45,0-.4.25-.9.55-1l7.2-2.25c.15-.05.2-.05.25-.05.5,0,.85.5.8.7-.25,1.2-.3,2.95-.3,4.5v19.7c.8,2.55,3.5,3.8,5.45,3.8,1.05,0,4.6.05,4.6-6.5s-2.95-8.05-5.25-8.05c-1.3,0-2.15.4-3.3,1-.55.3-1.05-1.4-.65-1.8,1-.9,3.05-2.2,6.05-2.2,4.15,0,8.7,2.3,8.7,9.9Z"/>
      <path d="M101.21,53.23c-.25,0-.35-.35-.35-.65,0-.6.35-1.35.7-1.4,1.85-.15,3.15-.45,3.15-1.9.05-6.65,0-13.25,0-20.1,0-1.9-.95-2.65-2.9-2.8-.55-.05-.4-1.6.1-1.75l7.05-2.1c.15-.05.3-.05.4-.05.7,0,1,.6.9.8-.25,1.2-.3,2.75-.3,4.3-.05,7.3-.05,14.65,0,21.95,0,1.25.4,1.4,3.65,1.55.25,0,.35.35.35.65,0,.6-.35,1.5-.9,1.5h-.1c-.8-.05-6.3-.2-11.65,0h-.1Z"/>
      <path d="M125.91,53.78c-7-.15-10.6-4.5-10.6-10.25,0-4.85,3.4-10.45,11.7-10.45,7.45,0,10.85,4.55,10.85,9.95s-3.45,10.75-11.6,10.75h-.35ZM125.81,35.43c-3.35,0-4.8,2.9-4.75,7,.1,6.2,2.95,8.95,5.95,9.05,3.4.1,5.15-2.8,5.1-7.45-.05-6-3.3-8.6-6.3-8.6Z"/>
      <path d="M162.16,35.98c-.25.35-.75.4-1,.1-1.3-1.25-2.35-1.6-3.65-.65,1.15,1.15,1.8,2.65,1.8,4.45,0,3.65-2.95,7.15-9.6,7.15-.65,0-1.25-.05-1.85-.1-1.35,1.1-1.3,1.8.2,2l8.3,1.1c3,.4,5.25,2.05,5.2,5.35-.05,5.1-6.45,7.4-11.75,7.4-3.05,0-10.5-.55-10.5-4.7,0-1.6,1.1-3.35,5.1-4.6.4-.15,1.2.55,1.05.85-.45.8-.6,1.4-.6,2.3,0,3.2,4.85,3.6,6.45,3.6,4.05,0,5.45-2.1,5.45-3.65,0-1.05-.8-2.2-3-2.5l-9.4-1.25c-1.9-.25-2.75-1.3-2.7-2.45.05-1.35,1.5-2.75,3.55-4.15-2.65-1-4.4-3-4.4-5.65,0-3.85,3.05-7.3,10-7.35,2,0,3.8.35,5.2,1.15,1.35-1.85,2.9-2.85,4.45-2.95h.35c1.3,0,2.75.45,2.75,1.15,0,.85-.7,2.55-1.4,3.4ZM153.86,40.63c0-2.95-1.95-5.2-4.05-5.2-2.4,0-3.55,1.75-3.55,4.45s1.95,4.95,4.5,4.95c1.9,0,3.1-1.8,3.1-4.2Z"/>
    </g>
  </g>
</svg>