<?xml version="1.0" encoding="UTF-8"?>
<svg id="_レイヤー_2" data-name="レイヤー_2" xmlns="http://www.w3.org/2000/svg" viewBox="0 0 287.44 70.75">
  <defs>
    <style>
      .cls-1 {
        fill: #f2d79c;
      }

      .cls-1, .cls-2 {
        stroke: #221714;
        stroke-miterlimit: 10;
        stroke-width: 3px;
      }

      .cls-2 {
        fill: #5aaddb;
      }
    </style>
  </defs>
  <g id="_レイヤー_1-2" data-name="レイヤー_1">
    <path class="cls-2" d="M238.74,42.04l-.74-3.07c4.7-4.1,36.97-12.81,43.23-14.31l-2.59,7.79,5.86,5.81c-4.15,1.06-40.49,8.58-45,6.98l-.77-3.2Z"/>
    <path class="cls-2" d="M237.8,38.09l-2.03-2.78c3-6.1,31.82-28.37,37.49-32.51l.66,8.92,8.33,3.39c-3.73,2.8-37.13,25.59-42.33,25.87l-2.12-2.9Z"/>
    <path class="cls-1" d="M1.5,10.45v58.8h235.98V10.45H1.5ZM220.55,47.02c-3.62,0-6.56-2.94-6.56-6.56s2.94-6.56,6.56-6.56,6.56,2.94,6.56,6.56-2.94,6.56-6.56,6.56Z"/>
    <rect class="cls-2" x="222.85" y="36.27" width="16.75" height="7.89" transform="translate(-.1 .57) rotate(-.14)"/>
    <g>
      <path d="M48.12,46.99c0,.1,0,.15-.05.25-1.1,1.6-3.8,3.55-8.9,3.55-6.3,0-10.6-3.8-10.6-10.1,0-5.6,3.8-10.55,11.5-10.55,4.85,0,7.65,1.7,7.8,2.6.15.8-.25,2.8-.5,3.8-.2.6-1.45.75-1.7.25-1.15-2.45-3.2-4.25-6.35-4.25-2.85,0-5.05,1.85-5.05,7.2s2.7,8.3,6.8,8.3c2.25,0,4.5-1.15,5.7-2.3.55-.5,1.35.55,1.35,1.25Z"/>
      <path d="M72.82,47.49c0,.35-.05.75-.2.95-.95,1.25-3.75,2.3-6,2.3-1.8,0-3.25-.7-3.25-2.25v-.1c-2.05,1.5-4.8,2.35-7.25,2.35-3.85,0-5.45-1.7-5.6-4.35v-.45c0-2.15,1.05-3.55,2.95-4.7,3-1.8,7.6-2.4,9.95-2.35v-2.4c0-2.8-1.35-3.95-3.4-3.95-2.45,0-3.8,2.25-4.8,4-.3.5-.75.65-1.05.65-1,0-2.15-2.1-2.15-3.6,0-.75.3-1.05.85-1.4.85-.5,3.5-2,8.25-2,4.1,0,7.8,1.65,7.7,6.25l-.2,9.6c-.05,1.5.7,1.85,3.8.7.3-.1.4.3.4.75ZM63.37,46.04l.05-5.2c-3.85-.1-8,1.1-8,4.4,0,1.9,1.3,2.65,2.75,2.65s3.55-.35,5.2-1.85Z"/>
      <path d="M88.32,46.94c0,.15,0,.25-.1.4-1.95,2.7-5.45,3.4-7.45,3.4-4.3,0-4.6-2.3-4.6-5.4v-11.75c-.95,0-1.9.05-2.85.1-.35.05-.5-.35-.5-.8,0-.35.1-.8.3-1.05.15-.15.4-.15.55-.2,2.55-1.05,4.65-2.9,5.65-5.75.1-.35.6-.5,1.05-.5.55,0,1.05.2,1.05.45v5.1c2.2.1,4.95.05,6-.05.8-.05.3,2.8-.45,2.75-2.4-.1-3.75-.1-5.55-.05v11.85c0,1.15.75,1.7,1.85,1.7,1,0,2.4-.5,3.8-1.5.55-.4,1.25.5,1.25,1.3Z"/>
      <path d="M109.37,47.09c0,.2-.05.35-.15.45-2.4,2.4-5.4,3.25-9.05,3.25-6,0-10.3-3.5-10.3-10.2,0-5.2,3.5-10.4,10.9-10.4,5.05,0,8.2,2.7,8.65,6.8v.1c0,.45-.3.85-.8,1l-12.85,3.9c.7,4.2,3.05,6.1,6.35,6.1,2.45,0,5-1.45,6-2.4.45-.45,1.25.7,1.25,1.4ZM95.57,39.24v.4l8.7-2.9c-.6-2.55-2.05-4.1-4.4-4.1-2.9.05-4.3,2.3-4.3,6.6Z"/>
      <path d="M133.67,32.98c-.25.35-.75.4-1,.1-1.3-1.25-2.35-1.6-3.65-.65,1.15,1.15,1.8,2.65,1.8,4.45,0,3.65-2.95,7.15-9.6,7.15-.65,0-1.25-.05-1.85-.1-1.35,1.1-1.3,1.8.2,2l8.3,1.1c3,.4,5.25,2.05,5.2,5.35-.05,5.1-6.45,7.4-11.75,7.4-3.05,0-10.5-.55-10.5-4.7,0-1.6,1.1-3.35,5.1-4.6.4-.15,1.2.55,1.05.85-.45.8-.6,1.4-.6,2.3,0,3.2,4.85,3.6,6.45,3.6,4.05,0,5.45-2.1,5.45-3.65,0-1.05-.8-2.2-3-2.5l-9.4-1.25c-1.9-.25-2.75-1.3-2.7-2.45.05-1.35,1.5-2.75,3.55-4.15-2.65-1-4.4-3-4.4-5.65,0-3.85,3.05-7.3,10-7.35,2,0,3.8.35,5.2,1.15,1.35-1.85,2.9-2.85,4.45-2.95h.35c1.3,0,2.75.45,2.75,1.15,0,.85-.7,2.55-1.4,3.4ZM125.37,37.64c0-2.95-1.95-5.2-4.05-5.2-2.4,0-3.55,1.75-3.55,4.45s1.95,4.95,4.5,4.95c1.9,0,3.1-1.8,3.1-4.2Z"/>
      <path d="M146.17,50.79c-7-.15-10.6-4.5-10.6-10.25,0-4.85,3.4-10.45,11.7-10.45,7.45,0,10.85,4.55,10.85,9.95s-3.45,10.75-11.6,10.75h-.35ZM146.07,32.43c-3.35,0-4.8,2.9-4.75,7,.1,6.2,2.95,8.95,5.95,9.05,3.4.1,5.15-2.8,5.1-7.45-.05-6-3.3-8.6-6.3-8.6Z"/>
      <path d="M178.87,32.53v.1c-.05,1.05-.75,2.75-1.45,3.6-.25.4-1.1.4-1.35,0-1.15-1.9-2.25-2.15-3.3-2.15-1.3,0-3.15,1.3-3.85,2.95v10.1c0,.8,1.55.8,3.2.85.75,0,.45,2.25-.45,2.25h-.1c-3.55-.2-7.45-.2-11,0-.25,0-.35-.2-.35-.7,0-.55.2-1.25.55-1.3,1.4-.3,2.9-.6,2.9-2.05.05-4.65,0-7.2-.05-9.8-.05-1.4-.5-2.05-2.75-2.65-.55-.15-.15-1.4.2-1.55,1.65-.65,3.25-1.35,4.9-2.2.1-.05.15-.05.2-.05.3,0,.9.3,1,.6.3,1.15.85,2.45,1.4,3.45,2-2.45,4.25-3.5,6.25-3.5,2.6,0,4.05,1.3,4.05,2.05Z"/>
      <path d="M202.87,30.68c.15,0,.3.2.3.4v.15c0,.6-.35,1.45-.55,1.5-1.15.25-1.6.6-2.1,1.55-6.3,12.4-9.3,18.7-11.45,24.55-.15.4-1.1.6-2.1.6-1.5,0-3.2-.5-2.4-1.75l4.45-6.85-7.75-16.6c-.65-1.35-1.1-1.25-2.25-1.35-.3-.05-.4-.35-.4-.7,0-.65.3-1.5.75-1.5h.1c2.85.15,6.75.15,9.95,0,.55,0,.35,1.85-.45,2-2.15.35-2.25.55-1.85,1.5l4.8,11.25,5.25-10.9c.65-1.35.8-1.55-1.9-1.6-.9,0-.25-2.25.3-2.25,3.3.15,5.2.15,7.2,0h.1Z"/>
    </g>
  </g>
</svg>