<?xml version="1.0" encoding="UTF-8"?>
<svg id="_レイヤー_2" data-name="レイヤー_2" xmlns="http://www.w3.org/2000/svg" viewBox="0 0 287.44 70.75">
  <defs>
    <style>
      .cls-1 {
        fill: #f9b66b;
      }

      .cls-1, .cls-2 {
        stroke: #221714;
        stroke-miterlimit: 10;
        stroke-width: 3px;
      }

      .cls-2 {
        fill: #6595db;
      }
    </style>
  </defs>
  <g id="_レイヤー_1-2" data-name="レイヤー_1">
    <path class="cls-2" d="M238.74,42.04l-.74-3.07c4.7-4.1,36.97-12.81,43.23-14.31l-2.59,7.79,5.86,5.81c-4.15,1.06-40.49,8.58-45,6.98l-.77-3.2Z"/>
    <path class="cls-2" d="M237.8,38.09l-2.03-2.78c3-6.1,31.82-28.37,37.49-32.51l.66,8.92,8.33,3.39c-3.73,2.8-37.13,25.59-42.33,25.87l-2.12-2.9Z"/>
    <path class="cls-1" d="M1.5,10.45v58.8h235.98V10.45H1.5ZM220.55,47.02c-3.62,0-6.56-2.94-6.56-6.56s2.94-6.56,6.56-6.56,6.56,2.94,6.56,6.56-2.94,6.56-6.56,6.56Z"/>
    <rect class="cls-2" x="222.85" y="36.27" width="16.75" height="7.89" transform="translate(-.1 .57) rotate(-.14)"/>
    <g>
      <path d="M35.46,49.98c0,.1,0,.15-.05.25-1.1,1.6-3.8,3.55-8.9,3.55-6.3,0-10.6-3.8-10.6-10.1,0-5.6,3.8-10.55,11.5-10.55,4.85,0,7.65,1.7,7.8,2.6.15.8-.25,2.8-.5,3.8-.2.6-1.45.75-1.7.25-1.15-2.45-3.2-4.25-6.35-4.25-2.85,0-5.05,1.85-5.05,7.2s2.7,8.3,6.8,8.3c2.25,0,4.5-1.15,5.7-2.3.55-.5,1.35.55,1.35,1.25Z"/>
      <path d="M48.11,53.78c-7-.15-10.6-4.5-10.6-10.25,0-4.85,3.4-10.45,11.7-10.45,7.45,0,10.85,4.55,10.85,9.95s-3.45,10.75-11.6,10.75h-.35ZM48.01,35.43c-3.35,0-4.8,2.9-4.75,7,.1,6.2,2.95,8.95,5.95,9.05,3.4.1,5.15-2.8,5.1-7.45-.05-6-3.3-8.6-6.3-8.6Z"/>
      <path d="M101.31,51.63c0,.6-.35,1.6-1,1.6h-.1c-.7-.05-4.65-.3-9.4,0h-.1c-.55,0-.45-1.75.25-1.95,1.55-.5,2.1-.65,2.15-2.1.1-2.35.05-4.4-.05-8.05-.1-2.8-1.9-4-3.8-4s-3.75,1.05-4.6,2.6v.1c0,3.15-.05,6.65-.1,9.75,0,1.25.95,1.3,2.7,1.4.6.05.25,2.25-.7,2.25h-.1c-2.95-.2-6.15-.2-9.4,0h-.1c-.5,0-.4-1.75.25-1.95,1.6-.5,2.1-.65,2.15-2.1.1-2.35.05-4.4-.05-8.05-.05-2.8-1.9-4-3.8-4s-3.75,1.05-4.6,2.6l-.05,10.4c0,.8,1.05.8,2.65.85.85,0,.55,2.25-.4,2.25h-.1c-3.55-.2-6.95-.2-10.5,0-.25,0-.35-.2-.35-.7,0-.55.2-1.25.55-1.3,1.4-.3,2.9-.6,2.9-2.05.05-4.65,0-7.2-.05-9.8-.05-1.4-.5-2.05-2.75-2.65-.55-.15-.15-1.4.2-1.55l4.9-2.2c.1-.05.15-.05.2-.05.3,0,.9.3,1,.6.3,1.15.85,2.35,1.4,3.35,2.05-2.15,4.7-3.4,7.5-3.4s5.25.95,6.2,3.45c2-2.15,4.65-3.45,7.5-3.45,3.9,0,6.75,1.6,6.75,6.35,0,3.15-.05,6.65-.1,9.75,0,1.25.9,1.3,2.65,1.4.2,0,.3.3.3.65Z"/>
      <path d="M141.66,51.63c0,.6-.35,1.6-1,1.6h-.1c-.7-.05-4.65-.3-9.4,0h-.1c-.55,0-.45-1.75.25-1.95,1.55-.5,2.1-.65,2.15-2.1.1-2.35.05-4.4-.05-8.05-.1-2.8-1.9-4-3.8-4s-3.75,1.05-4.6,2.6v.1c0,3.15-.05,6.65-.1,9.75,0,1.25.95,1.3,2.7,1.4.6.05.25,2.25-.7,2.25h-.1c-2.95-.2-6.15-.2-9.4,0h-.1c-.5,0-.4-1.75.25-1.95,1.6-.5,2.1-.65,2.15-2.1.1-2.35.05-4.4-.05-8.05-.05-2.8-1.9-4-3.8-4s-3.75,1.05-4.6,2.6l-.05,10.4c0,.8,1.05.8,2.65.85.85,0,.55,2.25-.4,2.25h-.1c-3.55-.2-6.95-.2-10.5,0-.25,0-.35-.2-.35-.7,0-.55.2-1.25.55-1.3,1.4-.3,2.9-.6,2.9-2.05.05-4.65,0-7.2-.05-9.8-.05-1.4-.5-2.05-2.75-2.65-.55-.15-.15-1.4.2-1.55l4.9-2.2c.1-.05.15-.05.2-.05.3,0,.9.3,1,.6.3,1.15.85,2.35,1.4,3.35,2.05-2.15,4.7-3.4,7.5-3.4s5.25.95,6.2,3.45c2-2.15,4.65-3.45,7.5-3.45,3.9,0,6.75,1.6,6.75,6.35,0,3.15-.05,6.65-.1,9.75,0,1.25.9,1.3,2.65,1.4.2,0,.3.3.3.65Z"/>
      <path d="M162.76,50.08c0,.2-.05.35-.15.45-2.4,2.4-5.4,3.25-9.05,3.25-6,0-10.3-3.5-10.3-10.2,0-5.2,3.5-10.4,10.9-10.4,5.05,0,8.2,2.7,8.65,6.8v.1c0,.45-.3.85-.8,1l-12.85,3.9c.7,4.2,3.05,6.1,6.35,6.1,2.45,0,5-1.45,6-2.4.45-.45,1.25.7,1.25,1.4ZM148.96,42.23v.4l8.7-2.9c-.6-2.55-2.05-4.1-4.4-4.1-2.9.05-4.3,2.3-4.3,6.6Z"/>
      <path d="M190.76,51.58c0,.7-.45,1.65-1.05,1.65h-.1c-.65-.05-4.55-.3-9.75,0h-.1c-.55,0-.25-1.9.25-1.95,1.8-.2,2.5-.65,2.55-2.1.1-2.35.05-4.4-.05-8.05-.1-2.8-1.9-4.05-4.35-4-1.85.05-3.7,1.1-4.55,2.75l-.05,10.3c0,.8.9.8,2.3.85.8,0,.3,2.25-.45,2.25h-.1c-3.3-.2-6.55-.2-10.1,0-.25,0-.35-.3-.35-.7,0-.55.2-1.25.55-1.3,1.4-.3,2.9-.6,2.9-2.05.05-4.65,0-7.2-.05-9.8-.05-1.4-.5-2.1-2.7-2.65-.55-.15-.15-1.4.2-1.55l4.9-2.2c.1-.05.15-.05.2-.05.3,0,.9.3,1,.6.3,1.15.8,2.4,1.35,3.4,2.05-2.2,4.85-3.45,7.95-3.5,3.85-.05,6.7,1.6,6.7,6.35,0,3.15-.05,6.65-.1,9.75,0,1.25.95,1.3,2.7,1.4.2,0,.3.25.3.6Z"/>
      <path d="M206.96,49.93c0,.15,0,.25-.1.4-1.95,2.7-5.45,3.4-7.45,3.4-4.3,0-4.6-2.3-4.6-5.4v-11.75c-.95,0-1.9.05-2.85.1-.35.05-.5-.35-.5-.8,0-.35.1-.8.3-1.05.15-.15.4-.15.55-.2,2.55-1.05,4.65-2.9,5.65-5.75.1-.35.6-.5,1.05-.5.55,0,1.05.2,1.05.45v5.1c2.2.1,4.95.05,6-.05.8-.05.3,2.8-.45,2.75-2.4-.1-3.75-.1-5.55-.05v11.85c0,1.15.75,1.7,1.85,1.7,1,0,2.4-.5,3.8-1.5.55-.4,1.25.5,1.25,1.3Z"/>
    </g>
  </g>
</svg>