<?xml version="1.0" encoding="UTF-8"?>
<svg id="_レイヤー_2" data-name="レイヤー_2" xmlns="http://www.w3.org/2000/svg" viewBox="0 0 287.44 70.75">
  <defs>
    <style>
      .cls-1 {
        fill: #e0bde5;
      }

      .cls-1, .cls-2 {
        stroke: #221714;
        stroke-miterlimit: 10;
        stroke-width: 3px;
      }

      .cls-2 {
        fill: #baa074;
      }
    </style>
  </defs>
  <g id="_レイヤー_1-2" data-name="レイヤー_1">
    <path class="cls-2" d="M238.74,42.04l-.74-3.07c4.7-4.1,36.97-12.81,43.23-14.31l-2.59,7.79,5.86,5.81c-4.15,1.06-40.49,8.58-45,6.98l-.77-3.2Z"/>
    <path class="cls-2" d="M237.8,38.09l-2.03-2.78c3-6.1,31.82-28.37,37.49-32.51l.66,8.92,8.33,3.39c-3.73,2.8-37.13,25.59-42.33,25.87l-2.12-2.9Z"/>
    <path class="cls-1" d="M1.5,10.45v58.8h235.98V10.45H1.5ZM220.55,47.02c-3.62,0-6.56-2.94-6.56-6.56s2.94-6.56,6.56-6.56,6.56,2.94,6.56,6.56-2.94,6.56-6.56,6.56Z"/>
    <rect class="cls-2" x="222.85" y="36.27" width="16.75" height="7.89" transform="translate(-.1 .57) rotate(-.14)"/>
    <g>
      <path d="M57.37,50.54c0,.1,0,.15-.05.25-1.1,1.6-3.8,3.55-8.9,3.55-6.3,0-10.6-3.8-10.6-10.1,0-5.6,3.8-10.55,11.5-10.55,4.85,0,7.65,1.7,7.8,2.6.15.8-.25,2.8-.5,3.8-.2.6-1.45.75-1.7.25-1.15-2.45-3.2-4.25-6.35-4.25-2.85,0-5.05,1.85-5.05,7.2s2.7,8.3,6.8,8.3c2.25,0,4.5-1.15,5.7-2.3.55-.5,1.35.55,1.35,1.25Z"/>
      <path d="M71.02,54.34c-7-.15-10.6-4.5-10.6-10.25,0-4.85,3.4-10.45,11.7-10.45,7.45,0,10.85,4.55,10.85,9.95s-3.45,10.75-11.6,10.75h-.35ZM70.92,35.99c-3.35,0-4.8,2.9-4.75,7,.1,6.2,2.95,8.95,5.95,9.05,3.4.1,5.15-2.8,5.1-7.45-.05-6-3.3-8.6-6.3-8.6Z"/>
      <path d="M111.97,52.14c0,.7-.45,1.65-1.05,1.65h-.1c-.65-.05-4.55-.3-9.75,0h-.1c-.55,0-.25-1.9.25-1.95,1.8-.2,2.5-.65,2.55-2.1.1-2.35.05-4.4-.05-8.05-.1-2.8-1.9-4.05-4.35-4-1.85.05-3.7,1.1-4.55,2.75l-.05,10.3c0,.8.9.8,2.3.85.8,0,.3,2.25-.45,2.25h-.1c-3.3-.2-6.55-.2-10.1,0-.25,0-.35-.3-.35-.7,0-.55.2-1.25.55-1.3,1.4-.3,2.9-.6,2.9-2.05.05-4.65,0-7.2-.05-9.8-.05-1.4-.5-2.1-2.7-2.65-.55-.15-.15-1.4.2-1.55l4.9-2.2c.1-.05.15-.05.2-.05.3,0,.9.3,1,.6.3,1.15.8,2.4,1.35,3.4,2.05-2.2,4.85-3.45,7.95-3.5,3.85-.05,6.7,1.6,6.7,6.35,0,3.15-.05,6.65-.1,9.75,0,1.25.95,1.3,2.7,1.4.2,0,.3.25.3.6Z"/>
      <path d="M129.17,50.49c0,.15,0,.25-.1.4-1.95,2.7-5.45,3.4-7.45,3.4-4.3,0-4.6-2.3-4.6-5.4v-11.75c-.95,0-1.9.05-2.85.1-.35.05-.5-.35-.5-.8,0-.35.1-.8.3-1.05.15-.15.4-.15.55-.2,2.55-1.05,4.65-2.9,5.65-5.75.1-.35.6-.5,1.05-.5.55,0,1.05.2,1.05.45v5.1c2.2.1,4.95.05,6-.05.8-.05.3,2.8-.45,2.75-2.4-.1-3.75-.1-5.55-.05v11.85c0,1.15.75,1.7,1.85,1.7,1,0,2.4-.5,3.8-1.5.55-.4,1.25.5,1.25,1.3Z"/>
      <path d="M154.37,51.04c0,.35-.05.75-.2.95-.95,1.25-3.75,2.3-6,2.3-1.8,0-3.25-.7-3.25-2.25v-.1c-2.05,1.5-4.8,2.35-7.25,2.35-3.85,0-5.45-1.7-5.6-4.35v-.45c0-2.15,1.05-3.55,2.95-4.7,3-1.8,7.6-2.4,9.95-2.35v-2.4c0-2.8-1.35-3.95-3.4-3.95-2.45,0-3.8,2.25-4.8,4-.3.5-.75.65-1.05.65-1,0-2.15-2.1-2.15-3.6,0-.75.3-1.05.85-1.4.85-.5,3.5-2,8.25-2,4.1,0,7.8,1.65,7.7,6.25l-.2,9.6c-.05,1.5.7,1.85,3.8.7.3-.1.4.3.4.75ZM144.92,49.59l.05-5.2c-3.85-.1-8,1.1-8,4.4,0,1.9,1.3,2.65,2.75,2.65s3.55-.35,5.2-1.85Z"/>
      <path d="M175.82,50.54c0,.1,0,.15-.05.25-1.1,1.6-3.8,3.55-8.9,3.55-6.3,0-10.6-3.8-10.6-10.1,0-5.6,3.8-10.55,11.5-10.55,4.85,0,7.65,1.7,7.8,2.6.15.8-.25,2.8-.5,3.8-.2.6-1.45.75-1.7.25-1.15-2.45-3.2-4.25-6.35-4.25-2.85,0-5.05,1.85-5.05,7.2s2.7,8.3,6.8,8.3c2.25,0,4.5-1.15,5.7-2.3.55-.5,1.35.55,1.35,1.25Z"/>
      <path d="M193.47,50.49c0,.15,0,.25-.1.4-1.95,2.7-5.45,3.4-7.45,3.4-4.3,0-4.6-2.3-4.6-5.4v-11.75c-.95,0-1.9.05-2.85.1-.35.05-.5-.35-.5-.8,0-.35.1-.8.3-1.05.15-.15.4-.15.55-.2,2.55-1.05,4.65-2.9,5.65-5.75.1-.35.6-.5,1.05-.5.55,0,1.05.2,1.05.45v5.1c2.2.1,4.95.05,6-.05.8-.05.3,2.8-.45,2.75-2.4-.1-3.75-.1-5.55-.05v11.85c0,1.15.75,1.7,1.85,1.7,1,0,2.4-.5,3.8-1.5.55-.4,1.25.5,1.25,1.3Z"/>
    </g>
  </g>
</svg>