<?xml version="1.0" encoding="UTF-8"?>
<svg xmlns="http://www.w3.org/2000/svg" version="1.1" viewBox="0 0 123.5 107.5">
  <defs>
    <style>
      .cls-1 {
        fill: none;
        stroke: #8a3931;
        stroke-miterlimit: 10;
        stroke-width: 3px;
      }
    </style>
  </defs>
  <!-- Generator: Adobe Illustrator 28.6.0, SVG Export Plug-In . SVG Version: 1.2.0 Build 709)  -->
  <g>
    <g id="_レイヤー_2">
      <g id="_レイヤー_1-2">
        <g>
          <path class="cls-1" d="M24.7,34.4c-6.2-4.6-5.8-20.9,3.2-24.7,8.9-1.8,52.3-8.1,52.3-8.1l40.1,22c1.7,1.1,3.3,5-1.3,5.4-1.2,0-2.4,1.1-2.4,2.9v11.8c0,1,.1,1.2,1.2,1.2h3c1,0,2.2,5-1.6,5.5-3.9.4-13.4,1.6-13.4,1.6-.4,2.2-1.4,3.7-4.8,4.3-1.6,0-1.3,1.2-1.3,1.9v5l18.9,10.5c1.1.7,2,3.5-.7,3.5h-1.6c-.9,0-2.3.3-2.4,2.4s0,13.5,0,13.5c0,.7-.1,1.3,1.1,1.4s3.2,0,4.2,0,2.8,3.7-.4,5.1c-3.9.4-50,6.4-50,6.4-.9.2-3.5,0-5.6-1.2s-43.3-24.4-43.3-24.4c-3.2-2.4-4.2-9.4-1.2-13.3-7.3-4.1-10.8-6.1-10.8-6.1-10.5-6.5-6.7-19.3.3-22.7.9-.5,3.4-1.4,4-1.5l12.4-2.4h0Z"/>
          <path class="cls-1" d="M109,44.7l-36.9,4.3c-10.2,1-11.9-11.9-2.2-13.4,9.7-1.5,39-4.1,39-4.1v13.2Z"/>
          <path class="cls-1" d="M107.5,80.2v14.1l-35.6,4.6c-9.9,1-11.5-12.7-2.1-14.3s37.7-4.4,37.7-4.4h0Z"/>
          <path class="cls-1" d="M92.8,57.9v14.5l-32.8,4.7c-9.1,1.1-10.6-13.1-1.9-14.7s34.8-4.5,34.8-4.5h0Z"/>
        </g>
      </g>
      <polyline class="cls-1" points="92.8 57.9 92.8 56.6 92.8 56.5"/>
      <path class="cls-1" d="M109,45.7v-1,1Z"/>
      <line class="cls-1" x1="109" y1="45.7" x2="109" y2="46.2"/>
    </g>
  </g>
</svg>