<?xml version="1.0" encoding="UTF-8"?>
<svg xmlns="http://www.w3.org/2000/svg" version="1.1" viewBox="0 0 123.5 107.5">
  <defs>
    <style>
      .cls-1 {
        fill: #619e7d;
      }

      .cls-1, .cls-2 {
        stroke: #231815;
        stroke-miterlimit: 10;
        stroke-width: 3px;
      }

      .cls-2 {
        fill: #fff;
      }
    </style>
  </defs>
  <!-- Generator: Adobe Illustrator 28.6.0, SVG Export Plug-In . SVG Version: 1.2.0 Build 709)  -->
  <g>
    <g id="_レイヤー_2">
      <g id="_レイヤー_1-2">
        <path class="cls-1" d="M24.7,34.4c-6.2-4.6-5.8-20.9,3.2-24.7,8.9-1.8,52.3-8.1,52.3-8.1l40.1,22c1.7,1.1,3.3,5-1.3,5.4-1.2,0-2.4,1.1-2.4,2.9v11.8c0,1,.1,1.2,1.2,1.2h3c1,0,2.2,5-1.6,5.5-3.9.4-13.4,1.6-13.4,1.6-.4,2.2-1.4,3.7-4.8,4.3-1.6,0-1.3,1.2-1.3,1.9v5l18.9,10.5c1.1.7,2,3.5-.7,3.5h-1.6c-.9,0-2.3.3-2.4,2.4s0,13.5,0,13.5c0,.7-.1,1.3,1.1,1.4s3.2,0,4.2,0,2.8,3.7-.4,5.1c-3.9.4-50,6.4-50,6.4-.9.2-3.5,0-5.6-1.2s-43.3-24.4-43.3-24.4c-3.2-2.4-4.2-9.4-1.2-13.3-7.3-4.1-10.8-6.1-10.8-6.1-10.5-6.5-6.7-19.3.3-22.7.9-.5,3.4-1.4,4-1.5l12.4-2.4h0Z"/>
        <path class="cls-2" d="M110.2,31v14.9l-36.6,4.9c-10.2,1.1-11.8-13.4-2.2-15.1,9.7-1.7,38.7-4.7,38.7-4.7h0Z"/>
        <path class="cls-2" d="M107.4,80.3v14.5l-34.3,4.7c-9.5,1.1-11.1-13-2-14.7,9.1-1.6,36.3-4.5,36.3-4.5h0Z"/>
        <path class="cls-2" d="M93.1,57.4v15.3l-33.1,4.5c-9.2,1-10.7-12.4-2-14,8.7-1.6,35.1-4.3,35.1-4.3v-1.5Z"/>
      </g>
    </g>
  </g>
</svg>