<?xml version="1.0" encoding="UTF-8"?>
<svg id="_レイヤー_2" data-name="レイヤー_2" xmlns="http://www.w3.org/2000/svg" viewBox="0 0 438.21 367.86">
  <defs>
    <style>
      .cls-1 {
        fill: #bdcbad;
      }

      .cls-2 {
        fill: #6d9a98;
      }

      .cls-3 {
        fill: #dcbda2;
      }

      .cls-4 {
        fill: #547a85;
      }

      .cls-5 {
        fill: #c15843;
      }

      .cls-6 {
        fill: #fff;
      }

      .cls-7 {
        stroke-width: 2px;
      }

      .cls-7, .cls-8 {
        fill: none;
        stroke: #231815;
        stroke-linecap: round;
        stroke-miterlimit: 10;
      }

      .cls-9 {
        fill: #f1bc82;
      }

      .cls-10 {
        fill: #6a3906;
      }

      .cls-11 {
        fill: #eeeeef;
      }

      .cls-8 {
        stroke-width: 3px;
      }

      .cls-12 {
        fill: #4e3c58;
      }

      .cls-13 {
        fill: #75625d;
      }
    </style>
  </defs>
  <g id="_レイヤー_1-2" data-name="レイヤー_1">
    <path class="cls-11" d="M408.08,276.31c45.01-5.51,31.86,35.6-7,49.13l3.8-13.19c13.91-2.76,36.24-30.05,2.41-24.37l.8-11.57Z"/>
    <path class="cls-11" d="M311.89,265.08c-.08,14.09-8.03,79.9,47.45,79.25,55.28-.85,46.78-57.42,48.05-79.25-15.71,23.48-81.7,21.75-93.6,3.23l-1.9-3.23Z"/>
    <ellipse class="cls-11" cx="360" cy="260.13" rx="47.27" ry="22.07"/>
    <path class="cls-10" d="M395.97,271.89c5.29-20.88-77.11-18.58-73.39-.74,2.35,11.31,69.14,17.5,73.39.74Z"/>
    <path class="cls-4" d="M49.27,88.94l-10.52,5.36v32.57l94.13,33.13,68.74-39.48c8.56-7.73,8.74-30.21-1.95-34.87l-9.17-4-4.87-1.95-94.52,36.42-41.85-27.19Z"/>
    <polygon class="cls-6" points="39.67 95.59 76.85 106.97 91.03 117.19 98.31 113.35 133.8 124.64 201.3 87.27 206.92 93.81 206.92 110.78 199.74 123.36 132.88 160 38.84 126.02 39.67 95.59"/>
    <polygon class="cls-6" points="26.45 41.53 94.21 86.36 95.55 89.53 96.57 93.99 96.57 101.33 95.75 106.17 93.42 112.18 90.95 115.26 26.45 69.84 26.45 41.53"/>
    <polygon class="cls-5" points="25.64 40.4 94.79 86.61 97.14 94.56 96.22 105.84 92.67 114.47 191.96 75.02 195.62 67.7 194.46 56.22 190.25 49.39 123 1.69 25.64 40.4"/>
    <polygon class="cls-6" points="124.02 158.31 121.42 164.96 121.01 176.87 123.69 186.11 200.64 147.84 200.64 122.46 132.82 160.89 124.02 158.31"/>
    <polygon class="cls-3" points="123.61 157.89 121.78 162.36 120.53 168.79 120.77 177.91 122.88 186.11 31.28 155.97 28.81 148 29.28 138.9 30.85 131.1 37.2 127.26 123.61 157.89"/>
    <polygon class="cls-6" points="3.25 197.34 68.07 256.69 122.11 234.46 122.11 265.6 66.86 286.26 2.35 223.81 3.25 197.34"/>
    <polygon class="cls-12" points="32.2 179.72 2.35 196.06 68.07 256.69 123.31 233.93 123.31 224.84 31.98 202.84 32.2 179.72"/>
    <polygon class="cls-1" points="52.12 163.99 32.86 173.94 35.77 174.97 123.31 193.55 125.16 198.27 126.18 204.32 125.25 212.28 193.41 168.44 200.64 171.21 201.46 165.47 200.64 157.16 195.9 150.91 123.31 188.02 52.12 163.99"/>
    <polygon class="cls-6" points="34.56 174.97 122.72 193.55 124.02 196.33 125.49 201.65 125.7 206.94 125.16 210.67 123.31 213.98 122.72 224.84 33.42 203.16 34.56 174.97"/>
    <polygon class="cls-6" points="36.51 258.99 36.51 295.25 123.31 313.56 123.31 281.67 92.07 276.6 66.45 287.2 36.51 258.99"/>
    <polygon class="cls-13" points="95.88 276.67 122.11 281.25 122.11 265.6 95.88 276.11 95.88 276.67"/>
    <polygon class="cls-6" points="124.35 213.76 125.76 216.74 129.81 219.33 137.35 219.98 142.62 219.98 146.79 219.4 211.5 178.69 193.23 170.42 124.35 213.76"/>
    <polygon class="cls-9" points="123.77 215.52 127.31 218.2 134.24 220.34 141.27 220.34 146.79 219.73 211.5 179.33 211.5 211.68 154.43 265.28 186.97 318.85 151.87 342.4 141.06 344.25 127.14 339.79 123.77 334.92 123.77 215.52"/>
    <polygon class="cls-6" points="218 206.16 156.56 265.28 159.16 267.46 164.44 268.88 170.73 268.46 178.36 266.53 241.44 207.01 218 206.16"/>
    <polygon class="cls-2" points="157.36 267.08 163.4 268.88 169.96 268.88 179.02 266.18 241.7 207.46 296.03 302.04 236.56 362.7 227.94 365.95 218.49 365.79 214.59 362.7 157.36 267.08"/>
    <ellipse class="cls-8" cx="359.64" cy="260.26" rx="47.64" ry="22.2"/>
    <path class="cls-8" d="M311.89,273.21c4.22,22.07-4.82,46.33,18.09,62.9,12.59,8.22,25.18,8.22,29.66,8.22"/>
    <path class="cls-8" d="M407.39,273.21c-4.22,22.07,4.82,46.33-18.09,62.9-12.59,8.22-25.18,8.22-29.66,8.22"/>
    <path class="cls-8" d="M412.85,275.66c25.45-3.52,39.25,22.68-4.24,46.37-.96.75-1.56,1.13-2.09,2.11"/>
    <path class="cls-8" d="M412.28,286.66c13.37-2.52,21.39,9.48-.98,22.83"/>
    <path class="cls-8" d="M323.34,268.31c-1.99-15.76,74.84-15.61,72.58,0"/>
    <path class="cls-8" d="M123,1.69s58.07,40.99,66.04,46.68c7.97,5.69,10.25,24.48,0,28.47-10.25,3.99-97.92,39.28-97.92,39.28L25.64,70.58v-30.74L123,1.69Z"/>
    <path class="cls-8" d="M43.35,91.95l-4.61,2.35v32.57l94.13,33.13,68.74-39.48c8.56-7.73,8.74-30.21-1.95-34.87l-9.17-4"/>
    <path class="cls-8" d="M200.64,127.81v20.04l-77.34,39.62s-85.5-27.58-91.12-30.76c-5.63-3.18-3.16-24.05-.16-26.16"/>
    <path class="cls-8" d="M181.5,322.42s-17.79,12.99-28.08,19.1c-11.26,7.4-28.63-1.93-30.11-7.72v-120.29l70.31-44.39,17.88,8.96v26.38"/>
    <path class="cls-8" d="M218,206.16l-62.66,58.63,60.36,99.73c4.39,3.29,16.11,1.83,20.87-1.83,4.76-3.66,60.03-59.67,60.03-59.67l-55.64-96.87h-22.96Z"/>
    <polyline class="cls-8" points="44.5 167.8 32.86 173.94 32.86 203.02 117.2 223.81"/>
    <path class="cls-8" d="M198.83,154.76c1.2,1.55,3.26,5.1,2.43,12.36"/>
    <polyline class="cls-8" points="26.9 182.66 1.5 196.53 1.5 223.96 66.86 286.26 116.35 267.51"/>
    <polyline class="cls-8" points="36.51 265.6 36.51 295.25 116.81 312.21"/>
    <polyline class="cls-7" points="27.25 41.53 94.21 86.36 189.38 50.47"/>
    <path class="cls-7" d="M94.21,86.36c5.03,9.51,2.02,22.78-2.3,28.11"/>
    <line class="cls-7" x1="133.8" y1="124.42" x2="200.42" y2="87.92"/>
    <path class="cls-7" d="M133.02,158.4c7.16-11.63,7.02-24.25.79-33.98l-36.29-10.87"/>
    <path class="cls-7" d="M123.44,185.39c-3.12-4.11-4.18-20.75.58-27.09"/>
    <path class="cls-7" d="M34.56,174.97l88.16,18.58c4.87,9.08,2.97,16.94.59,23.19"/>
    <polyline class="cls-7" points="3.25 197.34 68.07 256.69 122.11 234.46"/>
    <path class="cls-7" d="M68.07,256.69c4.12,9.55,3.9,19.33-.47,28.4"/>
    <line class="cls-7" x1="95.17" y1="276.96" x2="121.51" y2="281.25"/>
    <polyline class="cls-7" points="209.99 179.84 146.79 219.4 146.79 342.4"/>
    <path class="cls-7" d="M124.76,215.03c1.78,6.15,14.42,5.95,22.03,4.36"/>
    <polyline class="cls-7" points="240.07 208.57 178.36 266.53 236.56 362.7"/>
    <path class="cls-7" d="M178.36,266.53c-8.04,2.87-19.22,3.83-21-1.24"/>
    <line class="cls-7" x1="40.4" y1="95.59" x2="80.13" y2="108.04"/>
    <line class="cls-7" x1="122.72" y1="193.55" x2="154.43" y2="171.9"/>
  </g>
</svg>