<?xml version="1.0" encoding="UTF-8"?>
<svg id="_レイヤー_2" data-name="レイヤー_2" xmlns="http://www.w3.org/2000/svg" viewBox="0 0 287.44 70.75">
  <defs>
    <style>
      .cls-1 {
        fill: #cce595;
      }

      .cls-1, .cls-2 {
        stroke: #221714;
        stroke-miterlimit: 10;
        stroke-width: 3px;
      }

      .cls-2 {
        fill: #ffd62c;
      }
    </style>
  </defs>
  <g id="_レイヤー_1-2" data-name="レイヤー_1">
    <path class="cls-2" d="M238.74,42.04l-.74-3.07c4.7-4.1,36.97-12.81,43.23-14.31l-2.59,7.79,5.86,5.81c-4.15,1.06-40.49,8.58-45,6.98l-.77-3.2Z"/>
    <path class="cls-2" d="M237.8,38.09l-2.03-2.78c3-6.1,31.82-28.37,37.49-32.51l.66,8.92,8.33,3.39c-3.73,2.8-37.13,25.59-42.33,25.87l-2.12-2.9Z"/>
    <path class="cls-1" d="M1.5,10.45v58.8h235.98V10.45H1.5ZM220.55,47.02c-3.62,0-6.56-2.94-6.56-6.56s2.94-6.56,6.56-6.56,6.56,2.94,6.56,6.56-2.94,6.56-6.56,6.56Z"/>
    <rect class="cls-2" x="222.85" y="36.27" width="16.75" height="7.89" transform="translate(-.1 .57) rotate(-.14)"/>
    <g>
      <path d="M70.91,43.23c0,9.5-9.5,11.8-14.25,9.05-.85-.5.35-2.15,1.1-1.85,1.45.6,7.55,1.4,7.55-6.05,0-5.3-2.7-7.8-5.5-7.8-2.05,0-3.65,1.3-4.55,2.95v18.65c0,1.15.85,1.2,4,1.25.75,0,.45,2.3-.45,2.3h-.1c-3.7-.15-7.7-.15-11.65,0h-.1c-.15,0-.3-.3-.3-.7,0-.55.25-1.3.55-1.35,1.4-.3,2.8-.55,2.8-2.05.05-4.65,0-15.65-.05-18.25-.05-1.4-.65-2.05-2.95-2.65-.5-.15-.1-1.4.2-1.55l5.3-2.2c.1-.05.15-.05.2-.05.3,0,.9.3,1,.6.25,1.05.65,2.15,1.1,3.05,2.1-2.35,4.4-3.2,7.6-3.25,5.6-.05,8.5,4.25,8.5,9.9Z"/>
      <path d="M91.66,35.53v.1c-.05,1.05-.75,2.75-1.45,3.6-.25.4-1.1.4-1.35,0-1.15-1.9-2.25-2.15-3.3-2.15-1.3,0-3.15,1.3-3.85,2.95v10.1c0,.8,1.55.8,3.2.85.75,0,.45,2.25-.45,2.25h-.1c-3.55-.2-7.45-.2-11,0-.25,0-.35-.2-.35-.7,0-.55.2-1.25.55-1.3,1.4-.3,2.9-.6,2.9-2.05.05-4.65,0-7.2-.05-9.8-.05-1.4-.5-2.05-2.75-2.65-.55-.15-.15-1.4.2-1.55,1.65-.65,3.25-1.35,4.9-2.2.1-.05.15-.05.2-.05.3,0,.9.3,1,.6.3,1.15.85,2.45,1.4,3.45,2-2.45,4.25-3.5,6.25-3.5,2.6,0,4.05,1.3,4.05,2.05Z"/>
      <path d="M103.56,53.78c-7-.15-10.6-4.5-10.6-10.25,0-4.85,3.4-10.45,11.7-10.45,7.45,0,10.85,4.55,10.85,9.95s-3.45,10.75-11.6,10.75h-.35ZM103.46,35.43c-3.35,0-4.8,2.9-4.75,7,.1,6.2,2.95,8.95,5.95,9.05,3.4.1,5.15-2.8,5.1-7.45-.05-6-3.3-8.6-6.3-8.6Z"/>
      <path d="M135.06,24.38c0,1.15-1.05,3.45-1.75,4-.2.15-.75.15-.95-.15-1.75-2.8-3.6-3.35-4.8-2.75-.8.4-1,.9-1,2.05,0,2.1,0,4.15-.05,6.2,2.1.1,5.1.05,6.1-.05.8-.05.3,2.7-.45,2.65-2.3-.1-4-.1-5.65-.05,0,4.4,0,8.8.05,13.25,0,.95.4,1.4,4.3,1.45.55,0,.3,2.25-.5,2.25h-.1c-4-.2-8.05-.2-12.25,0-.45,0-.2-1.75.3-1.85,2.45-.5,3-.7,3-2.15.05-4.35.05-8.65.05-12.95-1.35,0-2.45,0-3.3.05-.3,0-.45-.3-.45-.7,0-.75.5-1.9,1.05-1.9.85,0,1.7.05,2.65.05v-3.1c-.05-7.25,7.2-8.4,8.45-8.4,2.1,0,3.85.4,5.1,1.5.15.1.2.3.2.6Z"/>
      <path d="M146.91,51.73c0,.65-.35,1.5-.9,1.5h-.1c-.7-.05-6.5-.3-11.8,0-.25,0-.35-.25-.35-.6,0-.55.3-1.35.65-1.4,1.95-.35,3.45-.8,3.45-2.05.05-3.25.05-6.45,0-9.7,0-2-.45-2.5-3-2.65-.5-.05-.4-1.55.35-1.75l7.15-2.1c.65-.2,1.2.5,1.1.75-.25,1.2-.35,2.9-.35,4.45v11.95c0,.8,1.55.8,3.35.85.3,0,.45.35.45.75ZM137.11,26.52c0-1.35,1.95-3.2,3.35-3.2,1.55,0,3.3,1.6,3.25,3.2-.05,1.4-1.75,3.15-3.35,3.15-1.5,0-3.25-1.75-3.25-3.15Z"/>
      <path d="M148.06,53.23c-.25,0-.35-.35-.35-.65,0-.6.35-1.35.7-1.4,1.85-.15,3.15-.45,3.15-1.9.05-6.65,0-13.25,0-20.1,0-1.9-.95-2.65-2.9-2.8-.55-.05-.4-1.6.1-1.75l7.05-2.1c.15-.05.3-.05.4-.05.7,0,1,.6.9.8-.25,1.2-.3,2.75-.3,4.3-.05,7.3-.05,14.65,0,21.95,0,1.25.4,1.4,3.65,1.55.25,0,.35.35.35.65,0,.6-.35,1.5-.9,1.5h-.1c-.8-.05-6.3-.2-11.65,0h-.1Z"/>
      <path d="M181.66,50.08c0,.2-.05.35-.15.45-2.4,2.4-5.4,3.25-9.05,3.25-6,0-10.3-3.5-10.3-10.2,0-5.2,3.5-10.4,10.9-10.4,5.05,0,8.2,2.7,8.65,6.8v.1c0,.45-.3.85-.8,1l-12.85,3.9c.7,4.2,3.05,6.1,6.35,6.1,2.45,0,5-1.45,6-2.4.45-.45,1.25.7,1.25,1.4ZM167.86,42.23v.4l8.7-2.9c-.6-2.55-2.05-4.1-4.4-4.1-2.9.05-4.3,2.3-4.3,6.6Z"/>
    </g>
  </g>
</svg>