<?xml version="1.0" encoding="UTF-8"?>
<svg id="_レイヤー_2" data-name="レイヤー_2" xmlns="http://www.w3.org/2000/svg" viewBox="0 0 321.24 109.25">
  <defs>
    <style>
      .cls-1 {
        fill: #c96659;
      }
    </style>
  </defs>
  <g id="_レイヤー_1-2" data-name="レイヤー_1">
    <g>
      <path class="cls-1" d="M118.58,39.8h9.5c.6,0,.9.7.9,1.6,0,1.4-.8,3.4-1.9,3.4h-8.4v6.3c0,2.9,2,2.9,6.7,3.4,1.6.2.7,4.3-.4,4.3-2.5-.1-7.6-.2-13-.2-4.4,0-9.1.1-12.8.2h-.2c-1.8,0-.6-4,.7-4.1,5.8-.5,8.5-.8,8.5-4.1v-5.7l-27.1.1c-1,0-2-1.3-2-2.6,0-.4.1-.8.3-1.2,8.3-13.4,23.5-32.7,30.9-40.5.4-.4,2.1-.7,3.9-.7,2.2,0,4.6.5,4.5,1.7-.1,3.9-.2,7.3-.2,10.6l.1,27.5ZM108.08,39.9l-.1-27.5c-6,7.2-15.1,19.2-20.9,27.6l21-.1Z"/>
      <path class="cls-1" d="M136.78,31.6v-.7c.2-19.2,9.3-30,25.8-30,14.9,0,22.3,12.7,22.3,28.9v.6c-.2,19.2-9.1,30-25.2,30s-22.9-12.8-22.9-28.8ZM148.28,27.4c0,15.3,4.1,28,15.1,28,6.1,0,9.9-8.3,9.9-22.2,0-14.8-4.5-27.4-14.3-27.4-6.7,0-10.7,8.2-10.7,21.6Z"/>
      <path class="cls-1" d="M230.88,39.8h9.5c.6,0,.9.7.9,1.6,0,1.4-.8,3.4-1.9,3.4h-8.4v6.3c0,2.9,2,2.9,6.7,3.4,1.6.2.7,4.3-.4,4.3-2.5-.1-7.6-.2-13-.2-4.4,0-9.1.1-12.8.2h-.2c-1.8,0-.6-4,.7-4.1,5.8-.5,8.5-.8,8.5-4.1v-5.7l-27.1.1c-1,0-2-1.3-2-2.6,0-.4.1-.8.3-1.2,8.3-13.4,23.5-32.7,30.9-40.5.4-.4,2.1-.7,3.9-.7,2.2,0,4.6.5,4.5,1.7-.1,3.9-.2,7.3-.2,10.6l.1,27.5ZM220.38,39.9l-.1-27.5c-6,7.2-15.1,19.2-20.9,27.6l21-.1Z"/>
      <path class="cls-1" d="M10.23,96.47c-1.05-.96-1.44-1.05-2.22-.21-1.53,1.65-2.64,2.97-3.63,4.11-.96,1.08-1.68,1.62-2.37,1.56-.93-.09-1.89-1.14-2.01-1.86v-.12c0-.36.33-.51.66-.63.39-.18,1.08-.57,2.19-1.59,1.53-1.38,2.61-2.49,4.08-3.9.72-.69,1.2-.96,1.86-.96s1.17.24,2.37,1.14c3.18,2.4,5.1,3.96,8.73,6.87,1.59,1.26,1.8,1.53,1.8,1.89,0,.63-.9,1.35-1.47,1.56-.24.09-.45.15-.66.15-.72,0-1.32-.57-2.19-1.41-1.89-1.83-3.6-3.42-7.14-6.6ZM15.21,92.57c0-1.32,1.02-2.4,2.4-2.4s2.4,1.08,2.4,2.4-1.08,2.46-2.4,2.46-2.4-1.08-2.4-2.46ZM18.63,92.57c0-.54-.48-1.02-1.02-1.02-.6,0-1.05.48-1.05,1.02,0,.6.45,1.05,1.05,1.05.54,0,1.02-.45,1.02-1.05Z"/>
      <path class="cls-1" d="M32.97,100.4h-.06c-1.02,0-1.74-1.41-1.74-2.31,0-.42.18-.72.54-.72.66,0,1.35.3,2.85.33,5.55.12,11.58-.18,13.83-.39h.15c1.02,0,1.56.99,1.56,1.8v.06c0,.51-.24.9-.69.9-4.17-.15-7.41-.15-13.08.15l-3.36.18Z"/>
      <path class="cls-1" d="M61.8,95.66c0-.24.15-.48.51-.48,3.87,0,5.79.72,5.79,2.31,0,.96-.69,1.53-1.5,1.53-1.17,0-1.14-1.35-4.47-2.79-.21-.09-.33-.33-.33-.57ZM68.1,105.83c-1.2.51-2.25.84-3.12.84-.78,0-1.59-.78-2.01-1.8-.33-.66-.03-1.08.63-1.14,1.5-.12,2.52-.36,4.05-1.05,3.9-1.74,8.37-5.04,11.7-8.97.51-.57,1.32-.24,1.32.36,0,.12-.03.24-.09.36-3.18,5.73-8.34,9.57-12.48,11.4ZM64.83,91.01c3.84,0,5.73.72,5.73,2.31,0,.84-.66,1.44-1.44,1.44-1.02,0-.9-1.23-4.47-2.73-.45-.21-.42-1.02.18-1.02ZM75.06,89.93c1.32.18,2.91,1.11,2.88,2.1,0,.66-.39,1.23-1.17,1.17-.84-.06-.6-1.11-2.13-2.46-.36-.3-.21-.9.42-.81ZM77.13,88.58h.09c1.86.21,3.15.93,3.06,1.89-.06.69-.69,1.02-1.11.99-.75-.06-.81-1.11-2.28-2.13-.3-.27-.3-.75.24-.75Z"/>
      <path class="cls-1" d="M103.65,97.55c0,1.14-.18,3.15-.81,4.95-.9,2.67-2.4,3.93-4.17,3.93-1.62,0-2.97-1.29-3.93-2.64-.12-.18-.18-.33-.18-.48,0-.42.54-.63.93-.39,1.08.69,1.65.81,2.34.78,2.4-.12,3.15-5.37,3.09-6.84-.06-1.32-.51-1.77-2.19-1.62l-.93.09c-1.59,3.27-3.72,6.78-5.37,8.88-.9,1.14-1.29,1.53-1.8,1.56-.78.03-1.47-.81-1.47-1.8,0-.24.06-.36.24-.54.27-.27.84-.75,1.95-2.31.87-1.23,1.95-3.12,2.91-5.04-.9.21-1.83.48-2.76.72-1.32.36-2.04-1.2-2.04-2.01,0-.42.21-.57.69-.48.72.12,1.35.15,3-.09.78-.12,1.5-.21,2.13-.3.63-1.38,1.11-2.67,1.35-3.57.09-.39-.03-.6.09-.93.09-.3.39-.63,2.07-.27.99.21,1.08.45.9,1.2-.24.96-.63,2.04-1.11,3.24.33-.03.63-.03.87-.03,2.55,0,4.2.9,4.2,3.99ZM112.38,98.75c0,2.49-2.55,3.15-4.65,3.15-.63,0-.72-.66-.3-.9,1.32-.75,1.65-1.32,1.65-2.22,0-1.59-.9-3.12-4.05-5.31-.69-.45-.18-1.29.48-1.11,5.58,1.62,6.87,4.86,6.87,6.39ZM108.21,90.02c1.32.18,2.91,1.11,2.88,2.1,0,.66-.39,1.23-1.17,1.17-.36-.03-.54-.24-.72-.6-.24-.45-.66-1.23-1.41-1.86-.36-.3-.21-.9.42-.81ZM113.43,90.47c0,.72-.6,1.11-1.11,1.08-.75-.06-.81-1.11-2.28-2.13-.3-.27-.3-.75.24-.75.6,0,3.15.45,3.15,1.8Z"/>
      <path class="cls-1" d="M129.39,103.1c-.45,3.75-4.02,5.61-10.53,6.15h-.09c-.39,0-.63-.3-.63-.6,0-.27.12-.45.36-.51,4.29-.96,6.93-2.55,7.65-5.1.12-.3-.06-.45-.06-.75,0-.33.12-.6.99-.69,2.1-.15,2.52-.06,2.31,1.5ZM122.88,89.63c0-.6-.21-.63-.21-.99,0-.42.24-.69,1.5-.78,1.71-.12,1.89.27,1.89.84h8.7c.33-.3.78-.72,1.05-.9.21-.12.39-.18.57-.18s.36.06.6.18c.63.33,1.44.93,1.83,1.47.21.3.21.63-.06.87-.12.12-.33.27-.6.42l-.09,10.29c0,.99-3.03,1.44-3.03.48v-.63h-9.06v.24c-.03.99-3,1.44-3,.48l-.09-11.79ZM125.97,99.44h9.06l-.03-2.46h-9l-.03,2.46ZM135,95.72l-.03-2.34h-8.94l-.03,2.34h9ZM134.94,89.96h-8.88l-.03,2.16h8.94l-.03-2.16ZM142.77,107.03c0,1.92-2.73,2.16-6.21,2.16-3.96,0-5.37-.42-5.37-2.46v-3.54c0-.45-.18-.51-.18-.81,0-.39.21-.63,1.32-.72,1.92-.12,2.04,0,2.04.72v3.27c0,.63,0,.66,1.56.72.75.03,1.8.03,2.52-.03.84-.12,1.08-.33,1.35-1.23l.45-1.53c.15-.45.48-.69.87-.63.42.09.63.36.54.84l-.3,1.5c-.12.51.06.69.6.75.54.06.81.39.81.99Z"/>
      <path class="cls-1" d="M157.47,103.88c8.04-.69,9.03-3.93,9.03-6,0-2.64-1.26-3.84-3.75-3.84-2.04,0-4.41,1.02-6.51,2.07-2.34,1.17-2.94,1.41-3.81,1.41-1.11,0-1.95-1.35-1.95-2.25,0-.48.3-.6.72-.57,1.47.06,2.88-.36,4.29-.9,2.34-.84,4.95-1.74,8.01-1.74,3.33,0,6.57,1.95,6.57,5.94,0,.96-.03,7.44-10.92,7.44-.51,0-1.08-.03-1.65-.06-1.05-.06-1.02-1.41-.03-1.5Z"/>
      <path class="cls-1" d="M194.13,97.55c0,1.32-.24,3.72-1.11,5.7-.9,2.16-2.22,3.18-3.87,3.18s-2.97-1.29-3.93-2.64c-.12-.18-.18-.33-.18-.48,0-.42.54-.63.93-.39,1.08.69,1.65.81,2.34.78,2.4-.12,3.15-5.37,3.09-6.84-.06-1.32-.51-1.77-2.19-1.62l-.93.09c-1.59,3.27-3.72,6.78-5.37,8.88-.9,1.14-1.29,1.53-1.8,1.56-.78.03-1.47-.81-1.47-1.8,0-.24.06-.33.24-.51.27-.3.84-.78,1.95-2.34.87-1.23,1.95-3.12,2.91-5.04-.9.21-1.83.48-2.76.72-1.32.36-2.04-1.2-2.04-2.01,0-.42.21-.57.69-.48.72.12,1.35.15,3-.09.78-.12,1.5-.21,2.13-.3.63-1.38,1.11-2.67,1.35-3.57.09-.39-.03-.6.09-.93.06-.21.21-.42.87-.42.3,0,.69.03,1.2.15.99.21,1.08.45.9,1.2-.24.96-.63,2.04-1.11,3.24.33-.03.63-.03.87-.03,2.55,0,4.2.9,4.2,3.99ZM202.86,98.75c0,2.49-2.55,3.15-4.65,3.15-.63,0-.72-.66-.3-.9,1.32-.75,1.65-1.32,1.65-2.22,0-1.59-.9-3.12-4.05-5.31-.69-.45-.18-1.29.48-1.11,5.58,1.62,6.87,4.86,6.87,6.39Z"/>
      <path class="cls-1" d="M216.87,105.98c5.64-1.05,8.28-3.09,8.4-8.94.06-2.94-1.05-4.44-2.52-4.44-2.04,0-3.78,2.34-4.14,6.84-.06.84.03,1.14.03,1.59,0,1.2-.99,1.8-1.95,1.8-2.97,0-4.2-3-4.2-5.61,0-2.07.33-3.57,1.56-6.81.15-.33.18-.48.21-.63,0-.12.03-.24.09-.42.09-.21.21-.33.6-.33.3,0,.75.09,1.44.3.99.3.96.63.6,1.47-.72,1.65-1.59,3.63-1.65,6.24-.06,2.49.72,2.88.99,2.88.18,0,.21-.27.24-.69.3-3.03,2.19-8.58,6.51-8.58,3.96,0,5.58,3.33,5.58,7.11,0,4.59-2.19,7.5-6.39,8.73-1.5.45-3.48.78-5.28.78-.81,0-.87-1.14-.12-1.29Z"/>
      <path class="cls-1" d="M258.72,105.62c0,.75-.51,1.5-1.23,1.53-.39,0-.63-.27-1.68-1.2-1.02-.81-2.07-1.5-3.15-2.01-.15,2.25-2.34,3.39-5.1,3.42-2.28,0-4.86-.84-4.86-3.27,0-1.86,1.62-3.21,5.07-3.21.66,0,1.29.03,1.92.12v-2.1c-.96.03-1.8,0-2.34-.03-2.82-.21-3.78-.75-3.81-1.89,0-1.14.87-2.31,5.49-3.45-1.89.03-4.08.06-5.43,0-.78-.06-1.35-.78-1.35-1.65,0-.54.09-.81.72-.66.87.21,2.07.42,3.66.48.78.03,1.86,0,3,0v-1.44c0-.6-.21-.72-.21-1.17,0-.27.12-.39.36-.51.51-.21,1.35-.24,1.83-.24.9,0,1.11.24,1.11.81v2.43c2.13-.12,3.48-.27,4.62-.54.69-.18,1.29.78,1.29,1.44,0,.24-.12.51-.36.57-1.05.24-2.4.33-5.55.51-.03,1.14-.03,2.34-.03,3.48.9-.06,1.8-.15,2.67-.27.21-.33.39-.6.63-.9.3-.39.66-.42,1.17-.09.48.36,1.29,1.02,1.32,1.44.03.36-.09.84-.72.99-1.35.3-3.24.48-5.07.57v2.85c2.43.75,4.44,1.86,5.46,2.73.39.33.57.78.57,1.26ZM249.69,102.83c-.84-.21-1.62-.3-2.37-.3-1.77.03-2.46.51-2.46,1.35,0,.93.93,1.53,2.49,1.53,1.86,0,2.28-.93,2.34-2.58ZM249.66,97.16v-2.94c-2.04.6-4.35,1.53-4.11,2.28.09.3.36.45,1.53.6.63.03,1.53.06,2.58.06Z"/>
      <path class="cls-1" d="M290.76,95.36c-1.86.03-3.54.09-5.1.21-.33,3.48-1.02,5.94-3.54,5.94-1.11,0-2.34-.6-3.15-1.08-.54-.36-.36-1.08.39-.93,2.58.48,3.09.09,3.36-2.37.03-.39.09-.81.12-1.29-2.16.27-4.11.6-6,1.02-.06,1.08-.09,2.13-.06,3.09.09,3.15.54,3.87,4.17,4.23,2.01.21,4.5-.09,5.61-.33.87-.18,1.65.96,1.65,2.01,0,.42-.24.69-.72.81-.45.12-1.47.27-3.18.27-6.93,0-9.84-1.14-10.17-6.06-.09-1.2-.15-2.31-.15-3.33-1.2.3-2.4.63-3.66.99-1.41.42-2.37-.87-2.37-1.74,0-.42.18-.57.6-.51.87.06,1.71.03,3.09-.3.78-.18,1.56-.33,2.31-.51,0-1.29.06-2.43.09-3.51,0-.48-.21-.48-.21-.87,0-.54.42-.75,2.01-.87,1.29-.09,1.56.09,1.44,1.26-.12,1.08-.24,2.25-.33,3.42,2.13-.39,4.11-.72,6-.96.06-.9.09-1.92.09-3.03,0-.36-.18-.45-.18-.75,0-.45.27-.63,1.62-.75.21-.03.42-.03.57-.03.87,0,.9.33.87,1.05-.03,1.14-.06,2.19-.12,3.21.81-.09,1.62-.15,2.43-.21.3-.42.69-.9.99-1.14.42-.39.75-.33,1.2.12.48.51.99,1.08,1.2,1.53.06.12.09.3.09.39,0,.39-.24,1.02-.96,1.02Z"/>
      <path class="cls-1" d="M321.24,101.57c0,.09-.03.21-.06.33-1.23,3.27-3.69,5.46-6.57,5.46-2.04,0-3.03-1.47-3.45-3.81-.54-2.94-.66-3.63-1.77-3.63-1.26,0-4.02,1.41-5.58,5.46-.54,1.38-.81,1.83-1.44,1.86-.96.06-1.83-.9-1.83-1.86,0-.24.06-.48.18-.72,3.09-5.67,8.01-13.05,8.55-13.83.6-.93.54-1.14.81-1.44.09-.15.24-.24.51-.24.09,0,.24,0,.42.06,1.17.36,1.92,1.08,1.89,1.5.03.45-.3.75-1.11,1.74-.96,1.23-3.36,4.02-5.4,7.2,1.95-1.41,3.3-1.65,4.47-1.65,1.89,0,2.46,1.41,2.73,3.3.51,3.12.93,3.51,1.92,3.51.87,0,2.13-.6,4.5-3.51.57-.69,1.23-.33,1.23.27Z"/>
    </g>
  </g>
</svg>