<?xml version="1.0" encoding="UTF-8"?>
<svg id="_レイヤー_2" data-name="レイヤー_2" xmlns="http://www.w3.org/2000/svg" viewBox="0 0 427.47 93">
  <defs>
    <style>
      .cls-1 {
        fill: #c96659;
      }

      .cls-2 {
        fill: #fff;
      }
    </style>
  </defs>
  <g id="_レイヤー_1-2" data-name="レイヤー_1">
    <rect class="cls-2" x="5.34" y="5.12" width="416.62" height="82.25"/>
    <path class="cls-1" d="M0,0v93h427.47V0H0ZM415.23,83.81H12.24V7.89h403v75.92Z"/>
    <path class="cls-1" d="M18.35,13.22v66.56h390.39V13.22H18.35ZM402.31,75.99H24.79V17.3h377.52v58.69Z"/>
    <g>
      <path class="cls-1" d="M49.39,33.08c-.06-.91-.42-.97-.42-1.87s.42-1.57,4.47-1.63c1.75-.06,2.3.18,2.3,1.87l-.3,17.11c-.06,2.36-5.87,3.63-5.81.85.12-4.54-.06-13-.24-16.33ZM53.02,64.52c-1.69,0-2.24-2.24-.36-2.84,12.22-3.93,15.36-9.07,15.6-20.8.12-4.23.06-6.35.06-8.04,0-1.15-.54-1.09-.48-2.24.06-1.09,1.09-1.51,4.47-1.69h.3c1.87,0,2.36.54,2.36,2.6v.36c-.06,3.02,0,5.38-.18,10.76-.36,10.76-3.93,19.53-21.53,21.89h-.24Z"/>
      <path class="cls-1" d="M140.22,36.95c0,.42-.18.85-.54,1.21-.42.42-.97.73-1.63,1.03l-.73,19.71c-.06,1.27-2.18,2.12-4.05,2.12-1.39,0-2.54-.48-2.54-1.57v-1.15h-16.87c-3.75,0-5.32.3-6.77.42-1.63.12-2.96-2.54-2.96-4.17,0-.85.36-1.39,1.09-1.27,1.51.24,3.39.48,5.99.48h19.65l.36-14.82h-15.9c-3.81,0-5.32.18-6.77.3-2.54.18-4.23-5.44-1.87-5.2,1.57.18,3.39.48,5.99.48h18.62c.6-.6,1.33-1.33,1.94-1.81.48-.42.97-.67,1.45-.67.36,0,.73.12,1.15.36,1.51.85,3.14,2.24,3.99,3.39.24.36.42.79.42,1.15Z"/>
      <path class="cls-1" d="M173.54,61.98c-2.18,0-4.78-1.33-4.78-3.75l.12-23.95c0-1.45-.42-1.94-.42-2.66,0-1.45,1.33-1.87,5.02-1.87,1.69,0,1.94.67,1.94,1.75l-.3,23.28c0,.48.06.97,2.36.3,7.38-2.12,16.69-7.5,22.62-13.36.6-.6.97-.73,1.45-.73.6,0,1.15.48,1.15,1.09,0,.48-.18.91-.73,1.69-4.17,6.35-11.49,11.49-17.66,14.63-3.51,1.81-7.74,3.27-10.28,3.57h-.48Z"/>
      <path class="cls-1" d="M260.07,34.77c.48.73.42,1.57-.18,2.18-.6.48-1.27.91-2,1.21-3.63,14.15-12.46,22.19-31.32,24.67h-.18c-1.57,0-2.06-2.42-.54-2.84,16.81-4.6,23.16-13.06,25.1-22.68l-16.75.12c-4.23.06-5.08.48-6.29.48-1.81,0-3.14-2.6-3.14-4.23,0-.91.36-1.57,1.27-1.33,1.81.42,3.81.67,7.26.67l18.56-.18c.48-.6,1.03-1.15,1.63-1.69,1.03-.85,1.63-.6,2.36-.24,1.69.91,3.39,2.72,4.23,3.87ZM266.18,31.93c0,1.33-.79,2.48-2.36,2.36-1.69-.12-1.21-2.24-4.29-4.96-.73-.6-.42-1.81.85-1.63,2.66.36,5.87,2.24,5.8,4.23ZM264.73,24.97c3.63.42,6.17,1.75,6.17,3.63v.18c-.12,1.39-1.39,2.06-2.24,2-1.51-.12-1.63-2.24-4.6-4.29-.6-.54-.6-1.51.48-1.51h.18Z"/>
      <path class="cls-1" d="M288.43,41.3c0-.67.79-1.03,1.57-.73,4.78,1.94,6.11,4.54,6.11,6.17,0,1.45-.79,2.78-2.42,2.78-2.48,0-1.57-2.36-5.08-7.74-.12-.18-.18-.36-.18-.48ZM295.21,63.25c-1.57,0-2-2-.48-2.6,4.84-1.69,15.72-5.68,17.11-18.93.06-.6-.18-1.09-.06-1.63.24-.79.97-1.03,4.29-.48,1.57.3,2,.85,2,1.81,0,.3-.06.6-.12.97-2.12,12.28-10.16,19.23-22.43,20.86h-.3ZM298.29,38.46c.18,0,.54.06.73.12,5.2,1.75,6.29,4.11,6.41,5.5.06,1.63-1.03,3.14-2.54,3.2-2.48.12-1.45-2.9-5.32-7.44-.67-.73-.18-1.39.73-1.39Z"/>
      <path class="cls-1" d="M382.1,36.1c0,.48-.3.91-.79,1.33-.54.36-1.15.67-1.81.85-3.69,13.91-13.36,22.56-30.24,25.82-.24.06-.42.06-.6.06-1.81,0-1.75-2.18-.3-2.72,14.09-5.32,21.1-12.22,24.49-24.37h-10.95c-3.51,5.99-8.89,10.58-13.97,13.12-1.45.67-2.36-.06-2.36-.97,0-.42.18-.91.6-1.33,5.81-5.62,9.68-11.37,11.49-16.99.24-.91-.12-1.51.24-2.3.18-.42.61-.67,1.94-.67h.79c3.69.36,4.6.85,3.93,3.08-.24.85-.54,1.69-.91,2.48h10.04c.48-.6,1.03-1.27,1.63-1.75.91-.79,1.63-.85,2.78-.12,1.21.73,2.66,2.12,3.33,2.96.42.6.67,1.03.67,1.51Z"/>
    </g>
  </g>
</svg>